<svg xmlns="http://www.w3.org/2000/svg" viewBox="0 0 512 512">
  <rect width="512" height="512" rx="112" fill="#020408"/>
  <path d="M256 80C158.8 80 80 158.8 80 256s78.8 176 176 176 176-78.8 176-176S353.2 80 256 80zm0 312c-75.1 0-136-60.9-136-136S180.9 120 256 120s136 60.9 136 136-60.9 136-136 136z" fill="#3B82F6"/>
  <path d="M256 160c-53 0-96 43-96 96s43 96 96 96 96-43 96-96-43-96-96-96zm0 152c-30.9 0-56-25.1-56-56s25.1-56 56-56 56 25.1 56 56-25.1 56-56 56z" fill="#10B981"/>
  <circle cx="256" cy="256" r="24" fill="#6366F1"/>
</svg>
